<svg xmlns="http://www.w3.org/2000/svg" width="612" height="792" viewBox="0 0 612 792"><path fill="#40596B" d="M611.363 110.357c0-11.451-8.905-20.357-20.355-20.357H26.082C12.088 90 .636 101.451.636 115.447v391.884h610.727V110.357z"/><path fill="#CDD6E0" d="M.636 507.331v48.349c0 13.996 11.45 25.447 25.446 25.447h559.833c13.996 0 25.446-11.451 25.446-25.447v-48.349H.636z"/><g fill="#F2F2F2"><circle cx="556.653" cy="544.229" r="13.996"/><circle cx="500.668" cy="544.229" r="13.996"/></g><path fill="#ACB3BA" d="M433.235 656.196h-254.47l27.992-55.984 7.634-19.085H397.61l7.631 19.085z"/><path fill="#CDD6E0" d="M454.865 656.196h-297.73a22.805 22.805 0 0 0-22.902 22.9 22.807 22.807 0 0 0 22.902 22.903h297.729a22.806 22.806 0 0 0 22.902-22.902 22.806 22.806 0 0 0-22.901-22.901z"/><path fill="#9EACB7" d="M405.241 600.212H206.757l7.634-19.085H397.61z"/><path fill="#FFF" d="M41.351 126.898h529.298V469.16H41.351z"/><path fill="#F05228" d="M306 196c-55.229 0-100 44.772-100 100s44.771 100 100 100c55.226 0 100-44.771 100-100s-44.772-100-100-100zm55.156 129.699l-25.457 25.457L306 321.457l-29.7 29.7-25.455-25.458L280.544 296l-29.699-29.7 25.455-25.453 29.7 29.697 29.697-29.697 25.456 25.453-29.697 29.7 29.7 29.699z"/></svg>