<?xml version="1.0" encoding="utf-8"?>
<!-- Generator: Adobe Illustrator 16.0.0, SVG Export Plug-In . SVG Version: 6.00 Build 0)  -->
<!DOCTYPE svg PUBLIC "-//W3C//DTD SVG 1.1//EN" "http://www.w3.org/Graphics/SVG/1.1/DTD/svg11.dtd">
<svg version="1.1" id="Layer_1" xmlns="http://www.w3.org/2000/svg" xmlns:xlink="http://www.w3.org/1999/xlink" x="0px" y="0px"
	 width="261.063px" height="269.027px" viewBox="0 0 261.063 269.027" enable-background="new 0 0 261.063 269.027"
	 xml:space="preserve">
<path fill="#CECECD" d="M60.543,48.269c18.577-15.052,42.048-24.3,67.658-24.971v-9.835C99.908,14.145,74,24.445,53.619,41.219
	C56.549,42.856,58.96,45.305,60.543,48.269z"/>
<path fill="#52100F" d="M134.201,13.463v9.835c60.653,1.592,109.333,51.258,109.333,112.293
	c0,62.041-50.292,112.333-112.334,112.333c-62.039,0-112.332-50.292-112.332-112.333c0-23.354,7.129-45.042,19.326-63.012
	c-3.099-1.332-5.735-3.529-7.604-6.292c-13.59,19.694-21.556,43.567-21.556,69.305c0,67.472,54.694,122.167,122.165,122.167
	c67.473,0,122.167-54.695,122.167-122.167C253.367,69.124,200.287,15.056,134.201,13.463z"/>
<path fill="#52100F" d="M56.607,51.611C55.27,48.469,52.678,46,49.467,44.8c-1.361-0.508-2.828-0.8-4.366-0.8
	c-6.897,0-12.5,5.599-12.5,12.5c0,1.912,0.442,3.716,1.211,5.337c1.456,3.072,4.119,5.456,7.384,6.531
	C42.425,68.773,43.736,69,45.101,69c6.901,0,12.5-5.6,12.5-12.5C57.601,54.764,57.246,53.113,56.607,51.611z M51.351,57.748h-1.132
	H46.35v4.23v0.771h-0.657h-1.841v-5.002h-5.001v-2.134V55.25h0.323h4.678v-5h2.498v5h5.001v1.339V57.748z"/>
<path fill="#676767" d="M131.201,90.346c2.757,0,5-2.244,5-5c0-2.757-2.243-5-5-5s-5,2.243-5,5
	C126.201,88.102,128.446,90.346,131.201,90.346z M141.202,99.235c0-3.333-6.667-5-10.001-5c-3.333,0-10,1.667-10,5v1.667h20.001
	V99.235z M146.758,69.791h-31.112c-2.442,0-4.443,2.001-4.443,4.444v31.111c0,2.442,2.001,4.443,4.443,4.443h31.112
	c2.443,0,4.443-2.001,4.443-4.443V74.235C151.201,71.792,149.201,69.791,146.758,69.791z M146.758,105.346h-31.112V74.235h31.112
	V105.346z"/>
<g>
	<path fill="#676767" d="M80.539,159.746l4.922,13.078l4.91-13.078h3.832v17.063H91.25v-5.625l0.293-7.523l-5.039,13.148h-2.121
		l-5.027-13.137l0.293,7.512v5.625h-2.953v-17.063H80.539z"/>
	<path fill="#676767" d="M105.114,175.566c-0.836,0.984-2.023,1.477-3.563,1.477c-1.375,0-2.416-0.402-3.123-1.207
		s-1.061-1.969-1.061-3.492v-8.215h2.848v8.18c0,1.609,0.668,2.414,2.004,2.414c1.383,0,2.316-0.496,2.801-1.488v-9.105h2.848v12.68
		h-2.684L105.114,175.566z"/>
	<path fill="#676767" d="M110.774,160.824c0-0.441,0.139-0.807,0.416-1.099s0.674-0.437,1.189-0.437s0.914,0.145,1.195,0.437
		s0.422,0.657,0.422,1.099c0,0.433-0.141,0.793-0.422,1.08s-0.68,0.432-1.195,0.432s-0.912-0.145-1.189-0.432
		S110.774,161.257,110.774,160.824z M113.797,176.808h-2.848v-12.68h2.848V176.808z"/>
	<path fill="#676767" d="M120.465,161.047v3.082h2.238v2.109h-2.238v7.078c0,0.484,0.096,0.834,0.287,1.049s0.533,0.322,1.025,0.322
		c0.328,0,0.66-0.039,0.996-0.117v2.203c-0.648,0.18-1.273,0.27-1.875,0.27c-2.188,0-3.281-1.207-3.281-3.621v-7.184h-2.086v-2.109
		h2.086v-3.082H120.465z"/>
	<path fill="#676767" d="M123.992,170.351c0-1.242,0.246-2.361,0.738-3.357s1.184-1.762,2.074-2.297s1.914-0.803,3.07-0.803
		c1.711,0,3.1,0.551,4.166,1.652s1.643,2.563,1.729,4.383l0.012,0.668c0,1.25-0.24,2.367-0.721,3.352s-1.168,1.746-2.063,2.285
		s-1.928,0.809-3.1,0.809c-1.789,0-3.221-0.596-4.295-1.787s-1.611-2.779-1.611-4.764V170.351z M126.84,170.597
		c0,1.305,0.27,2.326,0.809,3.064s1.289,1.107,2.25,1.107s1.709-0.375,2.244-1.125s0.803-1.848,0.803-3.293
		c0-1.281-0.275-2.297-0.826-3.047s-1.299-1.125-2.244-1.125c-0.93,0-1.668,0.369-2.215,1.107S126.84,169.129,126.84,170.597z"/>
	<path fill="#676767" d="M153.992,172.836h-6.609L146,176.808h-3.082l6.445-17.063h2.66l6.457,17.063h-3.094L153.992,172.836z
		 M148.215,170.445h4.945l-2.473-7.078L148.215,170.445z"/>
	<path fill="#676767" d="M163.168,176.808h-2.848v-18h2.848V176.808z"/>
	<path fill="#676767" d="M169.836,161.047v3.082h2.238v2.109h-2.238v7.078c0,0.484,0.096,0.834,0.287,1.049s0.533,0.322,1.025,0.322
		c0.328,0,0.66-0.039,0.996-0.117v2.203c-0.648,0.18-1.273,0.27-1.875,0.27c-2.188,0-3.281-1.207-3.281-3.621v-7.184h-2.086v-2.109
		h2.086v-3.082H169.836z"/>
	<path fill="#676767" d="M173.364,170.351c0-1.242,0.246-2.361,0.738-3.357s1.184-1.762,2.074-2.297s1.914-0.803,3.07-0.803
		c1.711,0,3.1,0.551,4.166,1.652s1.643,2.563,1.729,4.383l0.012,0.668c0,1.25-0.24,2.367-0.721,3.352s-1.168,1.746-2.063,2.285
		s-1.928,0.809-3.1,0.809c-1.789,0-3.221-0.596-4.295-1.787s-1.611-2.779-1.611-4.764V170.351z M176.211,170.597
		c0,1.305,0.27,2.326,0.809,3.064s1.289,1.107,2.25,1.107s1.709-0.375,2.244-1.125s0.803-1.848,0.803-3.293
		c0-1.281-0.275-2.297-0.826-3.047s-1.299-1.125-2.244-1.125c-0.93,0-1.668,0.369-2.215,1.107S176.211,169.129,176.211,170.597z"/>
</g>
</svg>
