<?xml version="1.0" encoding="utf-8"?>
<!-- Generator: Adobe Illustrator 16.0.0, SVG Export Plug-In . SVG Version: 6.00 Build 0)  -->
<!DOCTYPE svg PUBLIC "-//W3C//DTD SVG 1.1//EN" "http://www.w3.org/Graphics/SVG/1.1/DTD/svg11.dtd">
<svg version="1.1" id="Layer_1" xmlns="http://www.w3.org/2000/svg" xmlns:xlink="http://www.w3.org/1999/xlink" x="0px" y="0px"
	 width="540.667px" height="107.667px" viewBox="0 0 540.667 107.667" enable-background="new 0 0 540.667 107.667"
	 xml:space="preserve">
<g>
	<path fill="#42BECD" d="M15.618,19.175v85.917H3.021V4.251h19.58l24.988,77.155c0.729,2.19,1.267,3.892,1.609,5.101
		s0.604,2.271,0.787,3.184c0.365-1.688,0.729-3.195,1.095-4.52c0.365-1.322,0.753-2.578,1.164-3.765L78.122,4.251H97.77v100.841
		H84.489V19.175c-0.32,1.461-0.685,2.933-1.095,4.416c-0.411,1.484-0.845,2.956-1.301,4.416l-25.946,77.085H43.208L17.877,28.007
		c-0.457-1.277-0.867-2.646-1.232-4.108C16.279,22.439,15.937,20.864,15.618,19.175z"/>
</g>
<g>
	<path fill="#575857" d="M252.259,102.965V2.124h37.105c6.024,0,10.611,0.297,13.76,0.89c3.149,0.594,5.957,1.575,8.421,2.944
		c4.108,2.237,7.257,5.545,9.448,9.927c2.189,4.381,3.285,9.516,3.285,15.403c0,5.614-1.096,10.566-3.285,14.856
		c-2.191,4.291-5.387,7.713-9.585,10.269c-2.42,1.461-5.261,2.498-8.523,3.115c-3.264,0.615-8.638,0.924-16.122,0.924h-20.812
		v42.514H252.259z M265.951,48.266h23.002c7.986,0,13.565-1.277,16.739-3.833c3.171-2.556,4.758-6.937,4.758-13.145
		c0-5.979-1.575-10.269-4.725-12.871c-3.148-2.602-8.398-3.902-15.746-3.902h-24.029V48.266z"/>
</g>
<g>
	<path fill="#42BECD" d="M156.315,78.53h12.186c-1.324,8.078-4.838,14.445-10.543,19.101c-5.706,4.655-12.894,6.983-21.565,6.983
		c-10.178,0-18.21-3.424-24.098-10.27c-5.887-6.846-8.831-16.179-8.831-28c0-12.505,2.92-22.272,8.763-29.301
		c5.842-7.028,13.897-10.543,24.167-10.543c10.543,0,18.7,3.241,24.475,9.721c5.773,6.481,8.66,15.632,8.66,27.453
		c0,1.506-0.012,2.625-0.034,3.354c-0.024,0.73-0.081,1.438-0.171,2.122h-52.919c0.137,7.714,2.054,13.682,5.75,17.902
		c3.697,4.223,8.832,6.332,15.403,6.332c5.021,0,9.162-1.288,12.426-3.867C153.246,86.94,155.357,83.278,156.315,78.53z
		 M116.335,58.881h40.254c-0.046-6.845-1.78-12.127-5.203-15.848c-3.423-3.719-8.284-5.58-14.582-5.58
		c-6.07,0-10.851,1.826-14.342,5.477C118.97,46.583,116.927,51.899,116.335,58.881z"/>
</g>
<g>
	<path fill="#42BECD" d="M242.784,1.375v100.842h-11.912v-9.242c-3.149,3.834-6.709,6.709-10.68,8.626s-8.352,2.876-13.144,2.876
		c-9.768,0-17.56-3.503-23.379-10.51c-5.819-7.005-8.729-16.396-8.729-28.171c0-12.003,2.92-21.553,8.763-28.65
		c5.842-7.096,13.624-10.646,23.345-10.646c5.111,0,9.641,0.948,13.589,2.841c3.947,1.895,7.359,4.736,10.234,8.523V1.375H242.784z
		 M231.283,65.043c0-9.082-1.838-15.928-5.511-20.538c-3.674-4.609-9.117-6.915-16.328-6.915c-6.938,0-12.3,2.522-16.088,7.565
		c-3.789,5.043-5.682,12.198-5.682,21.462c0,8.353,1.951,14.925,5.854,19.717c3.902,4.793,9.253,7.188,16.054,7.188
		c6.891,0,12.231-2.465,16.02-7.394C229.388,81.2,231.283,74.172,231.283,65.043z"/>
</g>
<g>
	<path fill="#575857" d="M374.058,90.428c-3.834,4.016-7.906,7.028-12.22,9.036s-8.89,3.013-13.726,3.013
		c-7.486,0-13.328-1.951-17.526-5.854c-4.2-3.902-6.298-9.299-6.298-16.191c0-6.663,2.064-11.889,6.195-15.678
		c4.13-3.787,10.416-6.229,18.86-7.324c2.146-0.229,5.042-0.549,8.694-0.959c6.252-0.639,10.086-1.255,11.502-1.848
		c1.414-0.548,2.35-1.267,2.807-2.157c0.455-0.89,0.685-2.817,0.685-5.785c0-3.742-1.369-6.549-4.108-8.421
		c-2.738-1.871-6.869-2.807-12.391-2.807c-5.705,0-10.007,1.141-12.904,3.423c-2.899,2.283-4.348,5.66-4.348,10.132h-11.639v-0.548
		c0-7.394,2.602-13.235,7.805-17.526c5.203-4.29,12.368-6.435,21.496-6.435c9.813,0,17.035,1.838,21.668,5.511
		c4.632,3.675,6.949,9.414,6.949,17.218v36.695c0,3.148,0.342,5.18,1.027,6.092c0.684,0.914,1.916,1.369,3.696,1.369
		c0.364,0,0.81-0.033,1.335-0.102c0.523-0.068,1.152-0.172,1.883-0.309v9.516c-1.506,0.411-2.818,0.695-3.937,0.855
		c-1.119,0.16-2.181,0.24-3.184,0.24c-4.107,0-7.188-0.891-9.242-2.67s-3.081-4.473-3.081-8.078V90.428z M372.894,62.907
		c-3.285,1.779-8.923,3.172-16.909,4.176c-2.83,0.365-4.952,0.662-6.366,0.891c-4.474,0.73-7.691,2.053-9.653,3.971
		c-1.963,1.916-2.944,4.701-2.944,8.352c0,3.652,1.141,6.459,3.424,8.42c2.281,1.963,5.545,2.944,9.789,2.944
		c6.617,0,12.049-1.665,16.294-4.997s6.366-7.6,6.366-12.803V62.907z"/>
</g>
<g>
	<path fill="#575857" d="M396.839,76.31h11.844c0.455,4.976,2.246,8.741,5.373,11.296c3.126,2.557,7.565,3.834,13.316,3.834
		c5.293,0,9.469-1.037,12.527-3.115c3.058-2.076,4.588-4.917,4.588-8.523c0-2.691-0.766-4.758-2.294-6.195
		c-1.53-1.438-4.508-2.681-8.935-3.73l-13.76-3.561c-7.76-1.871-13.156-4.348-16.191-7.428c-3.035-3.081-4.553-7.473-4.553-13.179
		c0-6.48,2.453-11.626,7.359-15.438c4.906-3.811,11.627-5.717,20.162-5.717c8.717,0,15.654,2.031,20.812,6.093
		c5.157,4.063,7.736,9.516,7.736,16.362v0.274h-11.98c-0.274-3.879-1.86-6.88-4.759-9.002c-2.898-2.123-6.834-3.184-11.809-3.184
		s-8.752,0.868-11.33,2.602c-2.579,1.735-3.868,4.268-3.868,7.599c0,2.374,0.81,4.234,2.431,5.58
		c1.619,1.347,4.643,2.522,9.07,3.525l11.912,2.807c8.489,2.01,14.331,4.576,17.525,7.702c3.195,3.126,4.793,7.589,4.793,13.384
		c0,7.623-2.682,13.545-8.045,17.766s-12.859,6.332-22.488,6.332c-9.402,0-16.625-2.236-21.668-6.709S396.976,84.754,396.839,76.31z
		"/>
</g>
<g>
	<path fill="#575857" d="M464.505,76.31h11.844c0.455,4.976,2.246,8.741,5.373,11.296c3.126,2.557,7.565,3.834,13.316,3.834
		c5.293,0,9.469-1.037,12.527-3.115c3.058-2.076,4.588-4.917,4.588-8.523c0-2.691-0.766-4.758-2.294-6.195
		c-1.53-1.438-4.508-2.681-8.935-3.73l-13.76-3.561c-7.76-1.871-13.156-4.348-16.191-7.428c-3.035-3.081-4.553-7.473-4.553-13.179
		c0-6.48,2.453-11.626,7.359-15.438c4.906-3.811,11.627-5.717,20.162-5.717c8.717,0,15.654,2.031,20.812,6.093
		c5.157,4.063,7.736,9.516,7.736,16.362v0.274h-11.98c-0.274-3.879-1.86-6.88-4.759-9.002c-2.898-2.123-6.834-3.184-11.809-3.184
		s-8.752,0.868-11.33,2.602c-2.579,1.735-3.868,4.268-3.868,7.599c0,2.374,0.81,4.234,2.431,5.58
		c1.619,1.347,4.643,2.522,9.07,3.525l11.912,2.807c8.489,2.01,14.331,4.576,17.525,7.702c3.195,3.126,4.793,7.589,4.793,13.384
		c0,7.623-2.682,13.545-8.045,17.766s-12.859,6.332-22.488,6.332c-9.402,0-16.625-2.236-21.668-6.709S464.642,84.754,464.505,76.31z
		"/>
</g>
<polygon fill="#4E5152" points="518.677,11.247 524.655,11.247 524.655,5.239 529.696,5.239 529.696,11.247 535.706,11.247 
	535.706,16.288 529.696,16.288 529.696,22.266 524.655,22.266 524.655,16.288 518.677,16.288 "/>
<path fill="#4E5152" d="M527.247,25.726c-6.551,0-11.879-5.329-11.879-11.88c0-6.55,5.328-11.879,11.879-11.879
	s11.879,5.329,11.879,11.879C539.126,20.396,533.798,25.726,527.247,25.726 M527.247,3.379c-5.771,0-10.467,4.696-10.467,10.467
	c0,5.771,4.695,10.467,10.467,10.467s10.467-4.695,10.467-10.467C537.714,8.075,533.019,3.379,527.247,3.379"/>
</svg>
