<?xml version="1.0" encoding="utf-8"?>
<!-- Generator: Adobe Illustrator 16.0.0, SVG Export Plug-In . SVG Version: 6.00 Build 0)  -->
<!DOCTYPE svg PUBLIC "-//W3C//DTD SVG 1.1//EN" "http://www.w3.org/Graphics/SVG/1.1/DTD/svg11.dtd">
<svg version="1.1" id="Layer_1" xmlns="http://www.w3.org/2000/svg" xmlns:xlink="http://www.w3.org/1999/xlink" x="0px" y="0px"
	 width="261.063px" height="269.027px" viewBox="0 0 261.063 269.027" enable-background="new 0 0 261.063 269.027"
	 xml:space="preserve">
<path fill="#CECECD" d="M231.595,66.912c-1.979,2.666-4.693,4.743-7.851,5.939c12.085,17.916,19.141,39.504,19.141,62.738
	c0,62.041-50.292,112.333-112.334,112.333c-62.039,0-112.332-50.292-112.332-112.333c0-61.035,48.681-110.701,109.333-112.293
	v-9.835C61.469,15.055,8.386,69.123,8.386,135.592c0,67.473,54.695,122.167,122.165,122.167
	c67.473,0,122.167-54.694,122.167-122.167C252.719,110.127,244.924,86.484,231.595,66.912z"/>
<path fill="#5FBA46" d="M201.859,48.791c1.482-3.011,3.8-5.525,6.654-7.256c-20.438-16.959-46.491-27.386-74.961-28.072v9.835
	C159.461,23.978,183.182,33.429,201.859,48.791z"/>
<path fill="#5FBA46" d="M217.552,44c-1.774,0-3.461,0.376-4.991,1.044c-3.116,1.361-5.561,3.957-6.734,7.167
	c-0.491,1.339-0.772,2.78-0.772,4.289c0,6.901,5.602,12.5,12.5,12.5c1.095,0,2.15-0.155,3.162-0.419
	c3.339-0.873,6.136-3.081,7.771-6.031c0.995-1.793,1.565-3.854,1.565-6.05C230.052,49.598,224.454,44,217.552,44z M223.802,57.749
	h-5.001v5.001h-2.498v-5.001h-4.768h-0.233V57.51v-2.259h5.001V50.25h1.652h0.846v0.866v4.135h3.779h1.222v1.426V57.749
	L223.802,57.749z"/>
<path fill="#676767" d="M130.552,90.346c2.757,0,5-2.244,5-5c0-2.758-2.243-5-5-5c-2.756,0-5,2.242-5,5
	C125.552,88.102,127.797,90.346,130.552,90.346z M140.553,99.235c0-3.333-6.667-5-10.001-5c-3.333,0-10,1.667-10,5v1.667h20.001
	V99.235L140.553,99.235z M146.109,69.791h-31.11c-2.443,0-4.444,2.001-4.444,4.444v31.111c0,2.441,2.001,4.442,4.444,4.442h31.11
	c2.443,0,4.443-2.001,4.443-4.442V74.235C150.552,71.792,148.552,69.791,146.109,69.791z M146.109,105.346h-31.11V74.235h31.11
	V105.346z"/>
<g>
	<path fill="#676767" d="M102.114,176.808v-17.063h5.849c1.93,0,3.397,0.387,4.406,1.16c1.008,0.772,1.512,1.926,1.512,3.457
		c0,0.781-0.211,1.484-0.633,2.109c-0.423,0.625-1.039,1.108-1.853,1.452c0.922,0.25,1.635,0.722,2.139,1.412
		c0.505,0.691,0.757,1.521,0.757,2.49c0,1.602-0.515,2.832-1.541,3.691c-1.027,0.858-2.498,1.289-4.412,1.289h-6.224V176.808z
		 M105.079,166.929h2.905c0.922,0,1.644-0.21,2.162-0.628c0.52-0.418,0.779-1.01,0.779-1.774c0-0.844-0.24-1.453-0.721-1.828
		c-0.481-0.375-1.229-0.563-2.244-0.563h-2.883L105.079,166.929L105.079,166.929z M105.079,169.109v5.309h3.293
		c0.93,0,1.655-0.229,2.18-0.688c0.522-0.458,0.785-1.097,0.785-1.912c0-1.767-0.906-2.668-2.72-2.707L105.079,169.109
		L105.079,169.109z"/>
	<path fill="#676767" d="M124.555,176.808c-0.125-0.242-0.234-0.638-0.328-1.185c-0.906,0.945-2.016,1.418-3.328,1.418
		c-1.272,0-2.313-0.363-3.117-1.09c-0.804-0.727-1.207-1.625-1.207-2.695c0-1.352,0.503-2.389,1.507-3.11
		c1.004-0.723,2.438-1.084,4.307-1.084h1.746v-0.832c0-0.656-0.185-1.183-0.551-1.576c-0.367-0.395-0.927-0.592-1.677-0.592
		c-0.647,0-1.18,0.162-1.594,0.485c-0.414,0.324-0.621,0.736-0.621,1.236h-2.848c0-0.695,0.229-1.346,0.691-1.951
		c0.461-0.604,1.088-1.08,1.881-1.424s1.678-0.516,2.653-0.516c1.484,0,2.668,0.373,3.552,1.118
		c0.883,0.746,1.336,1.796,1.358,3.146v5.719c0,1.142,0.16,2.051,0.48,2.73v0.199h-2.905V176.808z M121.427,174.758
		c0.563,0,1.092-0.137,1.588-0.409c0.496-0.273,0.869-0.642,1.119-1.103v-2.391h-1.535c-1.055,0-1.848,0.184-2.379,0.551
		s-0.797,0.887-0.797,1.559c0,0.547,0.182,0.982,0.545,1.308S120.817,174.758,121.427,174.758z"/>
	<path fill="#676767" d="M129.969,160.824c0-0.441,0.139-0.807,0.416-1.099s0.673-0.438,1.189-0.438s0.914,0.146,1.195,0.438
		s0.422,0.656,0.422,1.099c0,0.433-0.141,0.793-0.422,1.08s-0.68,0.432-1.195,0.432s-0.912-0.145-1.189-0.432
		S129.969,161.257,129.969,160.824z M132.992,176.808h-2.848v-12.681h2.848V176.808z"/>
	<path fill="#676767" d="M140.645,168.301l2.414-4.172h3.164l-3.879,6.246l4.008,6.435h-3.141l-2.531-4.336l-2.52,4.336h-3.164
		l4.008-6.435l-3.867-6.246h3.141L140.645,168.301z"/>
	<path fill="#676767" d="M147.16,170.351c0-1.242,0.246-2.361,0.738-3.357s1.184-1.762,2.074-2.297
		c0.889-0.535,1.914-0.803,3.07-0.803c1.711,0,3.1,0.551,4.166,1.651c1.064,1.102,1.643,2.563,1.729,4.384l0.012,0.668
		c0,1.25-0.24,2.366-0.721,3.352s-1.168,1.746-2.063,2.285c-0.896,0.539-1.93,0.809-3.102,0.809c-1.789,0-3.221-0.596-4.295-1.787
		c-1.074-1.19-1.609-2.778-1.609-4.764V170.351L147.16,170.351z M150.008,170.597c0,1.305,0.27,2.325,0.809,3.063
		s1.289,1.107,2.25,1.107s1.709-0.375,2.244-1.125s0.803-1.849,0.803-3.293c0-1.281-0.273-2.298-0.824-3.048
		c-0.553-0.75-1.301-1.125-2.244-1.125c-0.932,0-1.668,0.369-2.215,1.107C150.281,168.023,150.008,169.129,150.008,170.597z"/>
</g>
</svg>
