<?xml version="1.0" encoding="utf-8"?>
<!-- Generator: Adobe Illustrator 16.0.0, SVG Export Plug-In . SVG Version: 6.00 Build 0)  -->
<!DOCTYPE svg PUBLIC "-//W3C//DTD SVG 1.1//EN" "http://www.w3.org/Graphics/SVG/1.1/DTD/svg11.dtd">
<svg version="1.1" id="Layer_1" xmlns="http://www.w3.org/2000/svg" xmlns:xlink="http://www.w3.org/1999/xlink" x="0px" y="0px"
	 width="261.063px" height="269.027px" viewBox="0 0 261.063 269.027" enable-background="new 0 0 261.063 269.027"
	 xml:space="preserve">
<path fill="#CECECD" d="M23.736,119.18c7.804-53.297,53.024-94.438,108.138-95.882v-9.835C71.551,14.916,22.072,60.094,13.9,118.517
	c1.228-0.272,2.496-0.428,3.806-0.428C19.827,118.091,21.853,118.488,23.736,119.18z"/>
<path fill="#941A1D" d="M137.872,13.463v9.835c60.654,1.592,109.332,51.258,109.332,112.293
	c0,62.041-50.291,112.333-112.334,112.333c-56.466,0-103.192-41.661-111.137-95.923c-1.882,0.691-3.906,1.089-6.029,1.089
	c-1.31,0-2.579-0.154-3.806-0.427c8.307,59.387,59.297,105.095,120.972,105.095c67.473,0,122.168-54.695,122.168-122.167
	C257.038,69.124,203.957,15.057,137.872,13.463z"/>
<path fill="#941A1D" d="M23.099,124.328c-1.636-0.785-3.46-1.238-5.395-1.238c-1.565,0-3.06,0.302-4.44,0.827
	c-4.706,1.793-8.06,6.337-8.06,11.673c0,5.335,3.354,9.878,8.06,11.674c1.382,0.524,2.875,0.826,4.44,0.826
	c1.935,0,3.759-0.451,5.394-1.237c4.199-2.018,7.106-6.296,7.106-11.263S27.297,126.344,23.099,124.328z M23.954,136.839h-1.4
	h-3.602v5.002h-2.498v-5.002h-3.732h-1.268v-2.498h1.268h3.732v-5h2.498v5h3.602h1.4V136.839z"/>
<path fill="#676767" d="M134.872,90.346c2.756,0,5-2.244,5-5c0-2.757-2.244-5-5-5s-5,2.243-5,5
	C129.872,88.102,132.116,90.346,134.872,90.346z M144.872,99.235c0-3.333-6.666-5-10-5s-10,1.667-10,5v1.667h20V99.235z
	 M150.429,69.791h-31.113c-2.442,0-4.442,2.001-4.442,4.444v31.111c0,2.442,2,4.443,4.442,4.443h31.113
	c2.443,0,4.443-2.001,4.443-4.443V74.235C154.872,71.792,152.872,69.791,150.429,69.791z M150.429,105.346h-31.113V74.235h31.113
	V105.346z"/>
<g>
	<path fill="#676767" d="M125.119,172.836h-6.609l-1.383,3.973h-3.082l6.445-17.063h2.66l6.457,17.063h-3.094L125.119,172.836z
		 M119.342,170.445h4.945l-2.473-7.078L119.342,170.445z"/>
	<path fill="#676767" d="M134.295,176.808h-2.848v-18h2.848V176.808z"/>
	<path fill="#676767" d="M140.963,161.047v3.082h2.238v2.109h-2.238v7.078c0,0.484,0.096,0.834,0.287,1.049s0.533,0.322,1.025,0.322
		c0.328,0,0.66-0.039,0.996-0.117v2.203c-0.648,0.18-1.273,0.27-1.875,0.27c-2.188,0-3.281-1.207-3.281-3.621v-7.184h-2.086v-2.109
		h2.086v-3.082H140.963z"/>
	<path fill="#676767" d="M144.49,170.351c0-1.242,0.246-2.361,0.738-3.357s1.184-1.762,2.074-2.297s1.914-0.803,3.07-0.803
		c1.711,0,3.1,0.551,4.166,1.652s1.643,2.563,1.729,4.383l0.012,0.668c0,1.25-0.24,2.367-0.721,3.352s-1.168,1.746-2.063,2.285
		s-1.928,0.809-3.1,0.809c-1.789,0-3.221-0.596-4.295-1.787s-1.611-2.779-1.611-4.764V170.351z M147.338,170.597
		c0,1.305,0.27,2.326,0.809,3.064s1.289,1.107,2.25,1.107s1.709-0.375,2.244-1.125s0.803-1.848,0.803-3.293
		c0-1.281-0.275-2.297-0.826-3.047s-1.299-1.125-2.244-1.125c-0.93,0-1.668,0.369-2.215,1.107S147.338,169.129,147.338,170.597z"/>
</g>
</svg>
