<?xml version="1.0" encoding="utf-8"?>
<!-- Generator: Adobe Illustrator 16.0.0, SVG Export Plug-In . SVG Version: 6.00 Build 0)  -->
<!DOCTYPE svg PUBLIC "-//W3C//DTD SVG 1.1//EN" "http://www.w3.org/Graphics/SVG/1.1/DTD/svg11.dtd">
<svg version="1.1" id="Layer_1" xmlns="http://www.w3.org/2000/svg" xmlns:xlink="http://www.w3.org/1999/xlink" x="0px" y="0px"
	 width="261.063px" height="269.027px" viewBox="0 0 261.063 269.027" enable-background="new 0 0 261.063 269.027"
	 xml:space="preserve">
<path fill="#CECECD" d="M238.043,151.83c-7.869,54.345-54.635,96.094-111.161,96.094c-62.039,0-112.332-50.291-112.332-112.332
	c0-61.036,48.681-110.702,109.333-112.293v-9.835C57.799,15.055,4.717,69.123,4.717,135.592
	c0,67.472,54.695,122.166,122.165,122.166c61.603,0,112.545-45.596,120.943-104.877c-1,0.179-2.023,0.286-3.074,0.286
	C242.374,153.167,240.109,152.688,238.043,151.83z"/>
<path fill="#FFC013" d="M238.063,119.496c2.062-0.854,4.317-1.33,6.688-1.33c1.059,0,2.089,0.11,3.096,0.29
	c-8.197-58.391-57.661-103.54-117.964-104.993v9.835C185.105,24.747,230.393,66.048,238.063,119.496z"/>
<path fill="#FFC013" d="M248.473,123.731c-1.176-0.367-2.426-0.564-3.723-0.564c-2.199,0-4.264,0.573-6.06,1.571
	c-3.839,2.134-6.44,6.227-6.44,10.929c0,4.696,2.597,8.784,6.429,10.921c1.799,1.002,3.867,1.579,6.071,1.579
	c1.292,0,2.537-0.195,3.709-0.561c5.092-1.581,8.791-6.331,8.791-11.939C257.251,130.061,253.558,125.316,248.473,123.731z
	 M251.001,136.915h-1.969H246v5.002h-2.498v-5.002h-4.303h-0.698v-2.498h0.7h4.301v-5H246v5h3.034h1.967V136.915L251.001,136.915z"
	/>
<path fill="#676767" d="M126.883,90.346c2.757,0,5-2.244,5-5c0-2.757-2.243-5-5-5c-2.756,0-5,2.243-5,5
	C121.883,88.102,124.127,90.346,126.883,90.346z M136.884,99.235c0-3.333-6.667-5-10.001-5c-3.333,0-10,1.667-10,5v1.667h20.001
	V99.235z M142.439,69.791h-31.111c-2.443,0-4.444,2.001-4.444,4.444v31.111c0,2.442,2.001,4.443,4.444,4.443h31.111
	c2.443,0,4.443-2.001,4.443-4.443V74.235C146.883,71.792,144.883,69.791,142.439,69.791z M142.439,105.346h-31.111V74.235h31.111
	V105.346z"/>
<g>
	<path fill="#676767" d="M63.36,161.808h-2.953v-17.063h2.953V161.808z"/>
	<path fill="#676767" d="M69.371,149.129l0.082,1.465c0.938-1.133,2.168-1.699,3.691-1.699c2.641,0,3.984,1.512,4.031,4.535v8.379
		h-2.848v-8.215c0-0.805-0.174-1.4-0.521-1.787s-0.916-0.58-1.705-0.58c-1.148,0-2.004,0.52-2.566,1.559v9.023h-2.848v-12.68H69.371
		z"/>
	<path fill="#676767" d="M83.645,146.047v3.082h2.238v2.109h-2.238v7.078c0,0.484,0.096,0.834,0.287,1.049s0.533,0.322,1.025,0.322
		c0.328,0,0.66-0.039,0.996-0.117v2.203c-0.648,0.18-1.273,0.27-1.875,0.27c-2.188,0-3.281-1.207-3.281-3.621v-7.184h-2.086v-2.109
		h2.086v-3.082H83.645z"/>
	<path fill="#676767" d="M93.641,162.043c-1.805,0-3.268-0.568-4.389-1.705s-1.682-2.65-1.682-4.541v-0.352
		c0-1.266,0.244-2.396,0.732-3.393s1.174-1.771,2.057-2.326s1.867-0.832,2.953-0.832c1.727,0,3.061,0.551,4.002,1.652
		s1.412,2.66,1.412,4.676v1.148h-8.285c0.086,1.047,0.436,1.875,1.049,2.484s1.385,0.914,2.314,0.914
		c1.305,0,2.367-0.527,3.188-1.582l1.535,1.465c-0.508,0.758-1.186,1.346-2.033,1.764S94.696,162.043,93.641,162.043z
		 M93.301,151.179c-0.781,0-1.412,0.273-1.893,0.82s-0.787,1.309-0.92,2.285h5.426v-0.211c-0.063-0.953-0.316-1.674-0.762-2.162
		S94.09,151.179,93.301,151.179z"/>
	<path fill="#676767" d="M107.574,151.73c-0.375-0.063-0.762-0.094-1.16-0.094c-1.305,0-2.184,0.5-2.637,1.5v8.672h-2.848v-12.68
		h2.719l0.07,1.418c0.688-1.102,1.641-1.652,2.859-1.652c0.406,0,0.742,0.055,1.008,0.164L107.574,151.73z"/>
	<path fill="#676767" d="M112.051,149.129l0.082,1.324c0.891-1.039,2.109-1.559,3.656-1.559c1.695,0,2.855,0.648,3.48,1.945
		c0.922-1.297,2.219-1.945,3.891-1.945c1.398,0,2.439,0.387,3.123,1.16s1.033,1.914,1.049,3.422v8.332h-2.848v-8.25
		c0-0.805-0.176-1.395-0.527-1.77s-0.934-0.563-1.746-0.563c-0.648,0-1.178,0.174-1.588,0.521s-0.697,0.803-0.861,1.365l0.012,8.695
		h-2.848v-8.344c-0.039-1.492-0.801-2.238-2.285-2.238c-1.141,0-1.949,0.465-2.426,1.395v9.188h-2.848v-12.68H112.051z"/>
	<path fill="#676767" d="M135.84,162.043c-1.805,0-3.268-0.568-4.389-1.705s-1.682-2.65-1.682-4.541v-0.352
		c0-1.266,0.244-2.396,0.732-3.393s1.174-1.771,2.057-2.326s1.867-0.832,2.953-0.832c1.727,0,3.061,0.551,4.002,1.652
		s1.412,2.66,1.412,4.676v1.148h-8.285c0.086,1.047,0.436,1.875,1.049,2.484s1.385,0.914,2.314,0.914
		c1.305,0,2.367-0.527,3.188-1.582l1.535,1.465c-0.508,0.758-1.186,1.346-2.033,1.764S136.895,162.043,135.84,162.043z
		 M135.5,151.179c-0.781,0-1.412,0.273-1.893,0.82s-0.787,1.309-0.92,2.285h5.426v-0.211c-0.063-0.953-0.316-1.674-0.762-2.162
		S136.289,151.179,135.5,151.179z"/>
	<path fill="#676767" d="M142.602,155.375c0-1.953,0.453-3.521,1.359-4.705s2.121-1.775,3.645-1.775c1.344,0,2.43,0.469,3.258,1.406
		v-6.492h2.848v18h-2.578l-0.141-1.313c-0.852,1.031-1.988,1.547-3.41,1.547c-1.484,0-2.686-0.598-3.604-1.793
		S142.602,157.429,142.602,155.375z M145.449,155.621c0,1.289,0.248,2.295,0.744,3.018s1.201,1.084,2.115,1.084
		c1.164,0,2.016-0.52,2.555-1.559v-5.414c-0.523-1.016-1.367-1.523-2.531-1.523c-0.922,0-1.633,0.365-2.133,1.096
		S145.449,154.152,145.449,155.621z"/>
	<path fill="#676767" d="M156.688,145.824c0-0.441,0.139-0.807,0.416-1.099s0.674-0.437,1.189-0.437s0.914,0.145,1.195,0.437
		s0.422,0.657,0.422,1.099c0,0.433-0.141,0.793-0.422,1.08s-0.68,0.432-1.195,0.432s-0.912-0.145-1.189-0.432
		S156.688,146.257,156.688,145.824z M159.711,161.808h-2.848v-12.68h2.848V161.808z"/>
	<path fill="#676767" d="M170.387,161.808c-0.125-0.242-0.234-0.637-0.328-1.184c-0.906,0.945-2.016,1.418-3.328,1.418
		c-1.273,0-2.313-0.363-3.117-1.09s-1.207-1.625-1.207-2.695c0-1.352,0.502-2.389,1.506-3.111s2.439-1.084,4.307-1.084h1.746v-0.832
		c0-0.656-0.184-1.182-0.551-1.576s-0.926-0.592-1.676-0.592c-0.648,0-1.18,0.162-1.594,0.486s-0.621,0.736-0.621,1.236h-2.848
		c0-0.695,0.23-1.346,0.691-1.951s1.088-1.08,1.881-1.424s1.678-0.516,2.654-0.516c1.484,0,2.668,0.373,3.551,1.119
		s1.336,1.795,1.359,3.146v5.719c0,1.141,0.16,2.051,0.48,2.73v0.199H170.387z M167.258,159.758c0.563,0,1.092-0.137,1.588-0.41
		s0.869-0.641,1.119-1.102v-2.391h-1.535c-1.055,0-1.848,0.184-2.379,0.551s-0.797,0.887-0.797,1.559
		c0,0.547,0.182,0.982,0.545,1.307S166.649,159.758,167.258,159.758z M168.84,143.808h3.246l-3.246,3.551l-2.285-0.006
		L168.84,143.808z"/>
	<path fill="#676767" d="M182.434,151.73c-0.375-0.063-0.762-0.094-1.16-0.094c-1.305,0-2.184,0.5-2.637,1.5v8.672h-2.848v-12.68
		h2.719l0.07,1.418c0.688-1.102,1.641-1.652,2.859-1.652c0.406,0,0.742,0.055,1.008,0.164L182.434,151.73z"/>
	<path fill="#676767" d="M184.239,145.824c0-0.441,0.139-0.807,0.416-1.099s0.674-0.437,1.189-0.437s0.914,0.145,1.195,0.437
		s0.422,0.657,0.422,1.099c0,0.433-0.141,0.793-0.422,1.08s-0.68,0.432-1.195,0.432s-0.912-0.145-1.189-0.432
		S184.239,146.257,184.239,145.824z M187.262,161.808h-2.848v-12.68h2.848V161.808z"/>
	<path fill="#676767" d="M189.828,155.351c0-1.242,0.246-2.361,0.738-3.357s1.184-1.762,2.074-2.297s1.914-0.803,3.07-0.803
		c1.711,0,3.1,0.551,4.166,1.652s1.643,2.563,1.729,4.383l0.012,0.668c0,1.25-0.24,2.367-0.721,3.352s-1.168,1.746-2.063,2.285
		s-1.928,0.809-3.1,0.809c-1.789,0-3.221-0.596-4.295-1.787s-1.611-2.779-1.611-4.764V155.351z M192.676,155.597
		c0,1.305,0.27,2.326,0.809,3.064s1.289,1.107,2.25,1.107s1.709-0.375,2.244-1.125s0.803-1.848,0.803-3.293
		c0-1.281-0.275-2.297-0.826-3.047s-1.299-1.125-2.244-1.125c-0.93,0-1.668,0.369-2.215,1.107S192.676,154.129,192.676,155.597z"/>
	<path fill="#676767" d="M102.506,190.607v-17.063h5.848c1.93,0,3.398,0.387,4.406,1.16s1.512,1.926,1.512,3.457
		c0,0.781-0.211,1.484-0.633,2.109s-1.039,1.109-1.852,1.453c0.922,0.25,1.635,0.721,2.139,1.412s0.756,1.521,0.756,2.49
		c0,1.602-0.514,2.832-1.541,3.691s-2.498,1.289-4.412,1.289H102.506z M105.471,180.728h2.906c0.922,0,1.643-0.209,2.162-0.627
		s0.779-1.01,0.779-1.775c0-0.844-0.24-1.453-0.721-1.828s-1.229-0.563-2.244-0.563h-2.883V180.728z M105.471,182.908v5.309h3.293
		c0.93,0,1.656-0.229,2.18-0.688s0.785-1.098,0.785-1.914c0-1.766-0.906-2.668-2.719-2.707H105.471z"/>
	<path fill="#676767" d="M124.948,190.607c-0.125-0.242-0.234-0.637-0.328-1.184c-0.906,0.945-2.016,1.418-3.328,1.418
		c-1.273,0-2.313-0.363-3.117-1.09s-1.207-1.625-1.207-2.695c0-1.352,0.502-2.389,1.506-3.111s2.439-1.084,4.307-1.084h1.746v-0.832
		c0-0.656-0.184-1.182-0.551-1.576s-0.926-0.592-1.676-0.592c-0.648,0-1.18,0.162-1.594,0.486s-0.621,0.736-0.621,1.236h-2.848
		c0-0.695,0.23-1.346,0.691-1.951s1.088-1.08,1.881-1.424s1.678-0.516,2.654-0.516c1.484,0,2.668,0.373,3.551,1.119
		s1.336,1.795,1.359,3.146v5.719c0,1.141,0.16,2.051,0.48,2.73v0.199H124.948z M121.819,188.556c0.563,0,1.092-0.137,1.588-0.41
		s0.869-0.641,1.119-1.102v-2.391h-1.535c-1.055,0-1.848,0.184-2.379,0.551s-0.797,0.887-0.797,1.559
		c0,0.547,0.182,0.982,0.545,1.307S121.209,188.556,121.819,188.556z"/>
	<path fill="#676767" d="M130.362,174.623c0-0.439,0.139-0.807,0.416-1.098s0.674-0.438,1.189-0.438s0.914,0.146,1.195,0.438
		s0.422,0.658,0.422,1.098c0,0.434-0.141,0.793-0.422,1.082c-0.281,0.287-0.68,0.43-1.195,0.43s-0.912-0.143-1.189-0.43
		C130.5,175.416,130.362,175.056,130.362,174.623z M133.385,190.607h-2.848v-12.68h2.848V190.607z"/>
	<path fill="#676767" d="M141.037,182.099l2.414-4.172h3.164l-3.879,6.246l4.008,6.434h-3.141l-2.531-4.336l-2.52,4.336h-3.164
		l4.008-6.434l-3.867-6.246h3.141L141.037,182.099z"/>
	<path fill="#676767" d="M147.553,184.15c0-1.242,0.246-2.361,0.738-3.357s1.184-1.762,2.074-2.297s1.914-0.803,3.07-0.803
		c1.711,0,3.1,0.551,4.166,1.652s1.643,2.563,1.729,4.383l0.012,0.668c0,1.25-0.24,2.367-0.721,3.352s-1.168,1.746-2.063,2.285
		s-1.928,0.809-3.1,0.809c-1.789,0-3.221-0.596-4.295-1.787s-1.611-2.779-1.611-4.764V184.15z M150.401,184.396
		c0,1.305,0.27,2.326,0.809,3.064s1.289,1.107,2.25,1.107s1.709-0.375,2.244-1.125s0.803-1.848,0.803-3.293
		c0-1.281-0.275-2.297-0.826-3.047s-1.299-1.125-2.244-1.125c-0.93,0-1.668,0.369-2.215,1.107S150.401,182.927,150.401,184.396z"/>
</g>
</svg>
