<?xml version="1.0" encoding="utf-8"?>
<!-- Generator: Adobe Illustrator 16.0.0, SVG Export Plug-In . SVG Version: 6.00 Build 0)  -->
<!DOCTYPE svg PUBLIC "-//W3C//DTD SVG 1.1//EN" "http://www.w3.org/Graphics/SVG/1.1/DTD/svg11.dtd">
<svg version="1.1" id="Layer_1" xmlns="http://www.w3.org/2000/svg" xmlns:xlink="http://www.w3.org/1999/xlink" x="0px" y="0px"
	 width="261.063px" height="269.027px" viewBox="0 0 261.063 269.027" enable-background="new 0 0 261.063 269.027"
	 xml:space="preserve">
<path fill="#F4831F" d="M243.545,135.592c0,23.591-7.276,45.476-19.698,63.549c3.278,0.898,6.165,2.724,8.373,5.182
	c13.35-19.581,21.158-43.242,21.158-68.729c0-66.468-53.08-120.534-119.166-122.128V23.3
	C194.866,24.889,243.545,74.555,243.545,135.592z"/>
<path fill="#CECECD" d="M202.837,222.129c-19.442,16.11-44.402,25.795-71.626,25.795c-62.039,0-112.332-50.291-112.332-112.332
	c0-61.036,48.681-110.702,109.333-112.293v-9.835C62.128,15.055,9.046,69.123,9.046,135.592
	c0,67.472,54.695,122.166,122.165,122.166c29.438,0,56.441-10.414,77.535-27.756C206.088,228.011,204.022,225.291,202.837,222.129z"
	/>
<path fill="#F4831F" d="M229.219,208.534c-2.013-2.693-5.076-4.552-8.591-4.948c-0.465-0.053-0.938-0.086-1.416-0.086
	c-6.898,0-12.5,5.599-12.5,12.5c0,0.867,0.089,1.714,0.258,2.531c0.704,3.422,2.817,6.323,5.696,8.101
	c1.905,1.178,4.144,1.868,6.546,1.868c6.9,0,12.5-5.6,12.5-12.5C231.712,213.197,230.778,210.619,229.219,208.534z M225.462,217.248
	h-3.391h-1.61v1.754v3.248h-2.498v-0.647v-4.354h-5.001v-2.498h5.001v-5h2.498v5h3.795h1.206V217.248z"/>
<path fill="#676767" d="M131.212,90.346c2.757,0,5-2.244,5-5c0-2.757-2.243-5-5-5c-2.756,0-5,2.243-5,5
	C126.212,88.102,128.456,90.346,131.212,90.346z M141.213,99.235c0-3.333-6.667-5-10.001-5c-3.333,0-10,1.667-10,5v1.667h20.001
	V99.235L141.213,99.235z M146.769,69.791h-31.111c-2.443,0-4.444,2.001-4.444,4.444v31.111c0,2.442,2.001,4.443,4.444,4.443h31.111
	c2.443,0,4.443-2.001,4.443-4.443V74.235C151.212,71.792,149.212,69.791,146.769,69.791z M146.769,105.346h-31.111V74.235h31.111
	V105.346z"/>
<g>
	<path fill="#676767" d="M63.36,177.808h-2.953v-17.063h2.953V177.808z"/>
	<path fill="#676767" d="M69.371,165.129l0.082,1.465c0.938-1.133,2.168-1.699,3.691-1.699c2.641,0,3.984,1.512,4.031,4.535v8.379
		h-2.848v-8.215c0-0.805-0.174-1.4-0.521-1.787s-0.916-0.58-1.705-0.58c-1.148,0-2.004,0.52-2.566,1.559v9.023h-2.848v-12.68H69.371
		z"/>
	<path fill="#676767" d="M83.645,162.047v3.082h2.238v2.109h-2.238v7.078c0,0.484,0.096,0.834,0.287,1.049s0.533,0.322,1.025,0.322
		c0.328,0,0.66-0.039,0.996-0.117v2.203c-0.648,0.18-1.273,0.27-1.875,0.27c-2.188,0-3.281-1.207-3.281-3.621v-7.184h-2.086v-2.109
		h2.086v-3.082H83.645z"/>
	<path fill="#676767" d="M93.641,178.043c-1.805,0-3.268-0.568-4.389-1.705s-1.682-2.65-1.682-4.541v-0.352
		c0-1.266,0.244-2.396,0.732-3.393s1.174-1.771,2.057-2.326s1.867-0.832,2.953-0.832c1.727,0,3.061,0.551,4.002,1.652
		s1.412,2.66,1.412,4.676v1.148h-8.285c0.086,1.047,0.436,1.875,1.049,2.484s1.385,0.914,2.314,0.914
		c1.305,0,2.367-0.527,3.188-1.582l1.535,1.465c-0.508,0.758-1.186,1.346-2.033,1.764S94.696,178.043,93.641,178.043z
		 M93.301,167.179c-0.781,0-1.412,0.273-1.893,0.82s-0.787,1.309-0.92,2.285h5.426v-0.211c-0.063-0.953-0.316-1.674-0.762-2.162
		S94.09,167.179,93.301,167.179z"/>
	<path fill="#676767" d="M107.574,167.73c-0.375-0.063-0.762-0.094-1.16-0.094c-1.305,0-2.184,0.5-2.637,1.5v8.672h-2.848v-12.68
		h2.719l0.07,1.418c0.688-1.102,1.641-1.652,2.859-1.652c0.406,0,0.742,0.055,1.008,0.164L107.574,167.73z"/>
	<path fill="#676767" d="M112.051,165.129l0.082,1.324c0.891-1.039,2.109-1.559,3.656-1.559c1.695,0,2.855,0.648,3.48,1.945
		c0.922-1.297,2.219-1.945,3.891-1.945c1.398,0,2.439,0.387,3.123,1.16s1.033,1.914,1.049,3.422v8.332h-2.848v-8.25
		c0-0.805-0.176-1.395-0.527-1.77s-0.934-0.563-1.746-0.563c-0.648,0-1.178,0.174-1.588,0.521s-0.697,0.803-0.861,1.365l0.012,8.695
		h-2.848v-8.344c-0.039-1.492-0.801-2.238-2.285-2.238c-1.141,0-1.949,0.465-2.426,1.395v9.188h-2.848v-12.68H112.051z"/>
	<path fill="#676767" d="M135.84,178.043c-1.805,0-3.268-0.568-4.389-1.705s-1.682-2.65-1.682-4.541v-0.352
		c0-1.266,0.244-2.396,0.732-3.393s1.174-1.771,2.057-2.326s1.867-0.832,2.953-0.832c1.727,0,3.061,0.551,4.002,1.652
		s1.412,2.66,1.412,4.676v1.148h-8.285c0.086,1.047,0.436,1.875,1.049,2.484s1.385,0.914,2.314,0.914
		c1.305,0,2.367-0.527,3.188-1.582l1.535,1.465c-0.508,0.758-1.186,1.346-2.033,1.764S136.895,178.043,135.84,178.043z
		 M135.5,167.179c-0.781,0-1.412,0.273-1.893,0.82s-0.787,1.309-0.92,2.285h5.426v-0.211c-0.063-0.953-0.316-1.674-0.762-2.162
		S136.289,167.179,135.5,167.179z"/>
	<path fill="#676767" d="M142.602,171.375c0-1.953,0.453-3.521,1.359-4.705s2.121-1.775,3.645-1.775c1.344,0,2.43,0.469,3.258,1.406
		v-6.492h2.848v18h-2.578l-0.141-1.313c-0.852,1.031-1.988,1.547-3.41,1.547c-1.484,0-2.686-0.598-3.604-1.793
		S142.602,173.429,142.602,171.375z M145.449,171.621c0,1.289,0.248,2.295,0.744,3.018s1.201,1.084,2.115,1.084
		c1.164,0,2.016-0.52,2.555-1.559v-5.414c-0.523-1.016-1.367-1.523-2.531-1.523c-0.922,0-1.633,0.365-2.133,1.096
		S145.449,170.152,145.449,171.621z"/>
	<path fill="#676767" d="M156.688,161.824c0-0.441,0.139-0.807,0.416-1.099s0.674-0.437,1.189-0.437s0.914,0.145,1.195,0.437
		s0.422,0.657,0.422,1.099c0,0.433-0.141,0.793-0.422,1.08s-0.68,0.432-1.195,0.432s-0.912-0.145-1.189-0.432
		S156.688,162.257,156.688,161.824z M159.711,177.808h-2.848v-12.68h2.848V177.808z"/>
	<path fill="#676767" d="M170.387,177.808c-0.125-0.242-0.234-0.637-0.328-1.184c-0.906,0.945-2.016,1.418-3.328,1.418
		c-1.273,0-2.313-0.363-3.117-1.09s-1.207-1.625-1.207-2.695c0-1.352,0.502-2.389,1.506-3.111s2.439-1.084,4.307-1.084h1.746v-0.832
		c0-0.656-0.184-1.182-0.551-1.576s-0.926-0.592-1.676-0.592c-0.648,0-1.18,0.162-1.594,0.486s-0.621,0.736-0.621,1.236h-2.848
		c0-0.695,0.23-1.346,0.691-1.951s1.088-1.08,1.881-1.424s1.678-0.516,2.654-0.516c1.484,0,2.668,0.373,3.551,1.119
		s1.336,1.795,1.359,3.146v5.719c0,1.141,0.16,2.051,0.48,2.73v0.199H170.387z M167.258,175.758c0.563,0,1.092-0.137,1.588-0.41
		s0.869-0.641,1.119-1.102v-2.391h-1.535c-1.055,0-1.848,0.184-2.379,0.551s-0.797,0.887-0.797,1.559
		c0,0.547,0.182,0.982,0.545,1.307S166.649,175.758,167.258,175.758z M168.84,159.808h3.246l-3.246,3.551l-2.285-0.006
		L168.84,159.808z"/>
	<path fill="#676767" d="M182.434,167.73c-0.375-0.063-0.762-0.094-1.16-0.094c-1.305,0-2.184,0.5-2.637,1.5v8.672h-2.848v-12.68
		h2.719l0.07,1.418c0.688-1.102,1.641-1.652,2.859-1.652c0.406,0,0.742,0.055,1.008,0.164L182.434,167.73z"/>
	<path fill="#676767" d="M184.239,161.824c0-0.441,0.139-0.807,0.416-1.099s0.674-0.437,1.189-0.437s0.914,0.145,1.195,0.437
		s0.422,0.657,0.422,1.099c0,0.433-0.141,0.793-0.422,1.08s-0.68,0.432-1.195,0.432s-0.912-0.145-1.189-0.432
		S184.239,162.257,184.239,161.824z M187.262,177.808h-2.848v-12.68h2.848V177.808z"/>
	<path fill="#676767" d="M189.828,171.351c0-1.242,0.246-2.361,0.738-3.357s1.184-1.762,2.074-2.297s1.914-0.803,3.07-0.803
		c1.711,0,3.1,0.551,4.166,1.652s1.643,2.563,1.729,4.383l0.012,0.668c0,1.25-0.24,2.367-0.721,3.352s-1.168,1.746-2.063,2.285
		s-1.928,0.809-3.1,0.809c-1.789,0-3.221-0.596-4.295-1.787s-1.611-2.779-1.611-4.764V171.351z M192.676,171.597
		c0,1.305,0.27,2.326,0.809,3.064s1.289,1.107,2.25,1.107s1.709-0.375,2.244-1.125s0.803-1.848,0.803-3.293
		c0-1.281-0.275-2.297-0.826-3.047s-1.299-1.125-2.244-1.125c-0.93,0-1.668,0.369-2.215,1.107S192.676,170.129,192.676,171.597z"/>
</g>
</svg>
