<?xml version="1.0" encoding="utf-8"?>
<!-- Generator: Adobe Illustrator 16.0.0, SVG Export Plug-In . SVG Version: 6.00 Build 0)  -->
<!DOCTYPE svg PUBLIC "-//W3C//DTD SVG 1.1//EN" "http://www.w3.org/Graphics/SVG/1.1/DTD/svg11.dtd">
<svg version="1.1" id="Layer_1" xmlns="http://www.w3.org/2000/svg" xmlns:xlink="http://www.w3.org/1999/xlink" x="0px" y="0px"
	 width="42px" height="42px" viewBox="0 0 42 42" enable-background="new 0 0 42 42" xml:space="preserve">
<circle fill="#FEC111" cx="21" cy="21" r="20"/>
<path fill="#FFFFFF" d="M24.755,23.255h-0.79l-0.28-0.27c0.98-1.141,1.57-2.621,1.57-4.23c0-3.59-2.91-6.5-6.5-6.5
	s-6.5,2.91-6.5,6.5s2.91,6.5,6.5,6.5c1.609,0,3.09-0.59,4.23-1.57l0.27,0.28v0.79l5,4.99l1.49-1.49L24.755,23.255z M18.755,23.255
	c-2.49,0-4.5-2.01-4.5-4.5s2.01-4.5,4.5-4.5s4.5,2.01,4.5,4.5S21.245,23.255,18.755,23.255z"/>
<path fill="none" d="M9,9h24v24H9V9z"/>
</svg>
