<svg xmlns="http://www.w3.org/2000/svg" width="612" height="792" viewBox="0 0 612 792"><path fill="#50C8EF" d="M374.317 90v88.887h85.942l-88.968 88.967c-38.1-25.993-84.108-41.212-133.608-41.212C106.622 226.642 0 333.264 0 464.317 0 595.377 106.622 702 237.683 702c131.053 0 237.676-106.623 237.676-237.683 0-49.502-15.221-95.512-41.216-133.613l88.971-88.971v85.949H612V90H374.317zM237.683 613.117c-82.051 0-148.795-66.75-148.795-148.794 0-82.045 66.75-148.79 148.795-148.79 82.037 0 148.789 66.744 148.795 148.79 0 82.05-66.756 148.794-148.795 148.794z"/></svg>