<?xml version="1.0" encoding="utf-8"?>
<!-- Generator: Adobe Illustrator 16.0.0, SVG Export Plug-In . SVG Version: 6.00 Build 0)  -->
<!DOCTYPE svg PUBLIC "-//W3C//DTD SVG 1.1//EN" "http://www.w3.org/Graphics/SVG/1.1/DTD/svg11.dtd">
<svg version="1.1" id="Layer_1" xmlns="http://www.w3.org/2000/svg" xmlns:xlink="http://www.w3.org/1999/xlink" x="0px" y="0px"
	 width="612px" height="792px" viewBox="0 0 612 792" enable-background="new 0 0 612 792" xml:space="preserve">
<path fill="#50C8EF" d="M374.317,90v88.887h85.942l-88.968,88.967c-38.1-25.993-84.108-41.212-133.608-41.212
	C106.622,226.642,0,333.264,0,464.317C0,595.377,106.622,702,237.683,702c131.053,0,237.676-106.623,237.676-237.683
	c0-49.502-15.221-95.512-41.216-133.613l88.971-88.971v85.949H612V90H374.317z M237.683,613.117
	c-82.051,0-148.795-66.75-148.795-148.794c0-82.045,66.75-148.79,148.795-148.79c82.037,0,148.789,66.744,148.795,148.79
	C386.478,546.373,319.722,613.117,237.683,613.117z"/>
</svg>
