<?xml version="1.0" encoding="utf-8"?>
<!-- Generator: Adobe Illustrator 16.0.0, SVG Export Plug-In . SVG Version: 6.00 Build 0)  -->
<!DOCTYPE svg PUBLIC "-//W3C//DTD SVG 1.1//EN" "http://www.w3.org/Graphics/SVG/1.1/DTD/svg11.dtd">
<svg version="1.1" id="Layer_1" xmlns="http://www.w3.org/2000/svg" xmlns:xlink="http://www.w3.org/1999/xlink" x="0px" y="0px"
	 width="612px" height="792px" viewBox="0 0 612 792" enable-background="new 0 0 612 792" xml:space="preserve">
<path fill="#40596B" d="M611.363,110.357c0-11.451-8.905-20.357-20.355-20.357H26.082c-13.994,0-25.446,11.451-25.446,25.447
	v391.884h610.727V110.357z"/>
<path fill="#CDD6E0" d="M0.636,507.331v48.349c0,13.996,11.45,25.447,25.446,25.447h559.833c13.996,0,25.446-11.451,25.446-25.447
	v-48.349H0.636z"/>
<g>
	<circle fill="#F2F2F2" cx="556.653" cy="544.229" r="13.996"/>
	<circle fill="#F2F2F2" cx="500.668" cy="544.229" r="13.996"/>
</g>
<polygon fill="#ACB3BA" points="433.235,656.196 178.765,656.196 206.757,600.212 214.391,581.127 397.61,581.127 405.241,600.212 
	"/>
<path fill="#CDD6E0" d="M454.865,656.196H157.135c-12.724,0-22.902,10.178-22.902,22.9c0,12.724,10.179,22.903,22.902,22.903
	h297.729c12.725,0,22.902-10.179,22.902-22.902C477.766,666.375,467.588,656.196,454.865,656.196z"/>
<polygon fill="#9EACB7" points="405.241,600.212 206.757,600.212 214.391,581.127 397.61,581.127 "/>
<rect x="41.351" y="126.898" fill="#FFFFFF" width="529.298" height="342.262"/>
<path fill="#6AC259" d="M306,196c-55.226,0-100,44.772-100,100s44.774,100,100,100c55.23,0,100-44.772,100-100S361.229,196,306,196z
	 M287.656,347.369l-44.033-44.03l14.675-14.676l29.357,29.354l66.042-66.045l14.676,14.676L287.656,347.369z"/>
</svg>
